<?xml version="1.0" encoding="UTF-8"?>
<svg width="135px" height="117px" viewBox="0 0 135 117" version="1.1" xmlns="http://www.w3.org/2000/svg" xmlns:xlink="http://www.w3.org/1999/xlink">
    <title>Group 2</title>
    <defs>
        <path d="M46.4226946,31.4051073 C46.5291842,31.2082277 46.6995676,31.1426011 46.848653,31.050724 C48.9784455,29.6331905 51.1295358,28.2944089 53.2912751,26.981878 C54.9418642,25.9843545 56.5711554,24.9343297 58.2110956,23.9236809 C58.6051072,23.6743 59.0097678,23.464295 59.4037794,23.2280395 C59.6913013,23.0574104 59.9575254,23.0836611 60.2343984,23.2411648 C60.7455486,23.5299216 61.2354008,23.8711796 61.7146041,24.225563 C66.1978172,27.5200157 70.7023282,30.7882178 75.2174881,34.0170439 C80.6804056,37.9283862 86.1113763,41.8791043 91.5849428,45.7510707 C100.317092,51.9330915 108.985347,58.2594907 117.696198,64.4940127 C120.709854,66.6596888 123.734159,68.7991142 126.758465,70.951665 C126.875603,71.0304169 127.067669,71.0829181 127.067669,71.2272965 C127.077934,71.4373015 126.864954,71.4635521 126.737167,71.5554292 C123.350797,73.8917343 119.964427,76.2280394 116.588706,78.5643445 C116.1308,78.879352 115.672895,79.2074847 115.225639,79.5487428 C114.842276,79.8506249 114.437616,79.9031261 114.001008,79.7849983 C112.5421,79.391239 111.072543,78.9974798 109.613636,78.6168458 C108.069536,78.2230865 106.514788,77.8424525 104.960039,77.4618185 C104.427591,77.3305654 103.905792,77.4224426 103.426589,77.73745 C103.128418,77.9343297 102.851545,78.1837106 102.585321,78.4462168 C102.276501,78.7480989 102.148713,79.1287329 102.201958,79.601244 C102.244554,79.9556274 102.297799,80.3100107 102.340395,80.6512688 C102.553374,82.3050578 102.393639,83.9063455 101.957032,85.494508 C101.658861,86.597034 101.232903,87.6208081 100.732401,88.6052064 C99.5716644,90.9152608 98.0914587,92.870932 96.3982737,94.5903475 C95.0991003,95.8897532 93.7253842,97.0447804 92.2771254,98.0948052 C92.1706358,98.173557 92.0641461,98.2391836 91.9789544,98.3310607 C91.3080698,98.9873262 90.5626425,99.486088 89.8065662,99.9717244 C88.1133812,101.048 86.4201962,102.11115 84.6631175,103.029922 C81.6814081,104.578708 78.603858,105.799362 75.4730632,106.796885 C73.4923562,107.4269 71.5010003,107.978163 69.4883465,108.411298 C68.1678752,108.700055 66.8367549,108.923186 65.4949857,109.10694 C63.6633642,109.356321 61.8317427,109.500699 59.9894723,109.618827 C58.5944582,109.710704 57.1994442,109.763205 55.8044302,109.776331 C54.6010975,109.789456 53.3871158,109.710704 52.1837831,109.645078 C51.353164,109.605702 50.511896,109.52695 49.681277,109.448198 C48.7015724,109.356321 47.711219,109.238193 46.7315145,109.10694 C45.8689485,108.988812 45.0063826,108.857559 44.1438167,108.713181 C42.7062068,108.49005 41.2898948,108.175043 39.8629339,107.833785 C37.2219913,107.190645 34.6236445,106.390001 32.0359468,105.471229 C28.6495768,104.263701 25.3696965,102.688664 22.1856568,100.837995 C20.5137698,99.866722 18.8312337,98.8954491 17.2338894,97.7272965 C14.4012655,95.6666229 11.6857802,93.3959443 9.16197615,90.7708824 C8.38460192,89.9571132 7.63917457,89.0908428 6.93634307,88.1720711 C5.82885101,86.6889112 4.71070999,85.2057512 3.76295236,83.5650875 C2.4318321,81.2419077 1.34563796,78.7480989 0.642806465,76.0311598 C0.152954208,74.1411152 -0.0600250338,72.1854441 0.0145177009,70.1903971 C0.11035836,67.7622148 0.621508541,65.4784109 1.46277655,63.2864842 C2.4318321,60.7532995 3.73100548,58.5088715 5.36029668,56.5532004 C7.23451401,54.3087725 9.24716785,52.2743495 11.451503,50.5286833 C12.580293,49.623037 13.7836257,48.8748943 14.9763095,48.1136264 C17.4255707,46.5648398 19.9280768,45.1473064 22.5264236,43.9791539 C24.9224401,42.9028785 27.3823503,42.075984 29.8742074,41.3934679 C31.6206372,40.9209567 33.3883649,40.6059493 35.1667416,40.3696937 C36.0506055,40.251566 36.9238204,40.1334382 37.8076842,39.9890598 C38.4679199,39.8840573 39.1281555,39.870932 39.7990401,39.870932 C41.3005438,39.870932 42.8020474,39.8971826 44.2929021,39.9103079 C45.0809253,39.9234332 45.8582996,39.9759345 46.6356738,40.1071875 C47.1042281,40.1859394 47.5514845,40.0940622 47.988092,39.870932 C48.3927525,39.6478017 48.7654662,39.3459196 49.116882,39.0046615 C49.3724571,38.768406 49.4576488,38.4402732 49.4150529,38.0596393 C49.383106,37.7840078 49.2872654,37.5346269 49.1701268,37.2983713 C48.7761152,36.4846021 48.3821036,35.6708329 47.9987409,34.8570637 C47.5408356,33.8726655 47.0829302,32.8882673 46.6250248,31.9038691 C46.5504821,31.73324 46.4972373,31.562611 46.4226946,31.4051073 Z" id="path-1"></path>
        <filter x="-3.0%" y="-4.2%" width="107.2%" height="111.0%" filterUnits="objectBoundingBox" id="filter-2">
            <feMorphology radius="2.625" operator="dilate" in="SourceAlpha" result="shadowSpreadOuter1"></feMorphology>
            <feOffset dx="0" dy="2" in="shadowSpreadOuter1" result="shadowOffsetOuter1"></feOffset>
            <feComposite in="shadowOffsetOuter1" in2="SourceAlpha" operator="out" result="shadowOffsetOuter1"></feComposite>
            <feColorMatrix values="0 0 0 0 0.980392157   0 0 0 0 0.980392157   0 0 0 0 0.980392157  0 0 0 1 0" type="matrix" in="shadowOffsetOuter1"></feColorMatrix>
        </filter>
        <path d="M46.4226946,25.2939962 C46.5291842,25.0971166 46.6995676,25.03149 46.848653,24.9396128 C48.9784455,23.5220794 51.1295358,22.1832978 53.2912751,20.8707669 C54.9418642,19.8732434 56.5711554,18.8232186 58.2110956,17.8125698 C58.6051072,17.5631889 59.0097678,17.3531839 59.4037794,17.1169283 C59.6913013,16.9462993 59.9575254,16.9725499 60.2343984,17.1300537 C60.7455486,17.4188105 61.2354008,17.7600685 61.7146041,18.1144519 C66.1978172,21.4089046 70.7023282,24.6771067 75.2174881,27.9059328 C80.6804056,31.817275 86.1113763,35.7679932 91.5849428,39.6399595 C100.317092,45.8219803 108.985347,52.1483796 117.696198,58.3829016 C120.709854,60.5485777 123.734159,62.6880031 126.758465,64.8405539 C126.875603,64.9193058 127.067669,64.971807 127.067669,65.1161854 C127.077934,65.3261903 126.864954,65.352441 126.737167,65.4443181 C123.350797,67.7806232 119.964427,70.1169283 116.588706,72.4532334 C116.1308,72.7682409 115.672895,73.0963736 115.225639,73.4376317 C114.842276,73.7395138 114.437616,73.792015 114.001008,73.6738872 C112.5421,73.2801279 111.072543,72.8863687 109.613636,72.5057347 C108.069536,72.1119754 106.514788,71.7313414 104.960039,71.3507074 C104.427591,71.2194543 103.905792,71.3113315 103.426589,71.6263389 C103.128418,71.8232186 102.851545,72.0725995 102.585321,72.3351057 C102.276501,72.6369878 102.148713,73.0176217 102.201958,73.4901329 C102.244554,73.8445162 102.297799,74.1988996 102.340395,74.5401577 C102.553374,76.1939467 102.393639,77.7952344 101.957032,79.3833969 C101.658861,80.4859229 101.232903,81.509697 100.732401,82.4940952 C99.5716644,84.8041497 98.0914587,86.7598209 96.3982737,88.4792364 C95.0991003,89.7786421 93.7253842,90.9336693 92.2771254,91.9836941 C92.1706358,92.0624459 92.0641461,92.1280725 91.9789544,92.2199496 C91.3080698,92.8762151 90.5626425,93.3749769 89.8065662,93.8606133 C88.1133812,94.9368887 86.4201962,96.0000388 84.6631175,96.9188105 C81.6814081,98.467597 78.603858,99.6882508 75.4730632,100.685774 C73.4923562,101.315789 71.5010003,101.867052 69.4883465,102.300187 C68.1678752,102.588944 66.8367549,102.812074 65.4949857,102.995829 C63.6633642,103.24521 61.8317427,103.389588 59.9894723,103.507716 C58.5944582,103.599593 57.1994442,103.652094 55.8044302,103.66522 C54.6010975,103.678345 53.3871158,103.599593 52.1837831,103.533966 C51.353164,103.494591 50.511896,103.415839 49.681277,103.337087 C48.7015724,103.24521 47.711219,103.127082 46.7315145,102.995829 C45.8689485,102.877701 45.0063826,102.746448 44.1438167,102.602069 C42.7062068,102.378939 41.2898948,102.063932 39.8629339,101.722674 C37.2219913,101.079534 34.6236445,100.27889 32.0359468,99.360118 C28.6495768,98.1525895 25.3696965,96.5775524 22.1856568,94.7268838 C20.5137698,93.7556108 18.8312337,92.7843379 17.2338894,91.6161854 C14.4012655,89.5555118 11.6857802,87.2848332 9.16197615,84.6597713 C8.38460192,83.8460021 7.63917457,82.9797317 6.93634307,82.06096 C5.82885101,80.5778001 4.71070999,79.0946401 3.76295236,77.4539764 C2.4318321,75.1307966 1.34563796,72.6369878 0.642806465,69.9200487 C0.152954208,68.0300041 -0.0600250338,66.074333 0.0145177009,64.0792859 C0.11035836,61.6511037 0.621508541,59.3672998 1.46277655,57.1753731 C2.4318321,54.6421884 3.73100548,52.3977604 5.36029668,50.4420893 C7.23451401,48.1976614 9.24716785,46.1632384 11.451503,44.4175722 C12.580293,43.5119259 13.7836257,42.7637832 14.9763095,42.0025153 C17.4255707,40.4537287 19.9280768,39.0361953 22.5264236,37.8680428 C24.9224401,36.7917674 27.3823503,35.9648729 29.8742074,35.2823568 C31.6206372,34.8098456 33.3883649,34.4948382 35.1667416,34.2585826 C36.0506055,34.1404548 36.9238204,34.0223271 37.8076842,33.8779486 C38.4679199,33.7729462 39.1281555,33.7598209 39.7990401,33.7598209 C41.3005438,33.7598209 42.8020474,33.7860715 44.2929021,33.7991968 C45.0809253,33.8123221 45.8582996,33.8648233 46.6356738,33.9960764 C47.1042281,34.0748283 47.5514845,33.9829511 47.988092,33.7598209 C48.3927525,33.5366906 48.7654662,33.2348085 49.116882,32.8935504 C49.3724571,32.6572949 49.4576488,32.3291621 49.4150529,31.9485281 C49.383106,31.6728966 49.2872654,31.4235158 49.1701268,31.1872602 C48.7761152,30.373491 48.3821036,29.5597218 47.9987409,28.7459526 C47.5408356,27.7615544 47.0829302,26.7771562 46.6250248,25.792758 C46.5504821,25.6221289 46.4972373,25.4514999 46.4226946,25.2939962 Z" id="path-3"></path>
        <filter x="-3.0%" y="-4.2%" width="107.2%" height="111.0%" filterUnits="objectBoundingBox" id="filter-4">
            <feMorphology radius="2.625" operator="dilate" in="SourceAlpha" result="shadowSpreadOuter1"></feMorphology>
            <feOffset dx="0" dy="2" in="shadowSpreadOuter1" result="shadowOffsetOuter1"></feOffset>
            <feComposite in="shadowOffsetOuter1" in2="SourceAlpha" operator="out" result="shadowOffsetOuter1"></feComposite>
            <feColorMatrix values="0 0 0 0 0.980392157   0 0 0 0 0.980392157   0 0 0 0 0.980392157  0 0 0 1 0" type="matrix" in="shadowOffsetOuter1"></feColorMatrix>
        </filter>
        <path d="M46.4226946,19.1828851 C46.5291842,18.9860054 46.6995676,18.9203789 46.848653,18.8285017 C48.9784455,17.4109683 51.1295358,16.0721867 53.2912751,14.7596558 C54.9418642,13.7621322 56.5711554,12.7121075 58.2110956,11.7014586 C58.6051072,11.4520778 59.0097678,11.2420728 59.4037794,11.0058172 C59.6913013,10.8351882 59.9575254,10.8614388 60.2343984,11.0189425 C60.7455486,11.3076994 61.2354008,11.6489574 61.7146041,12.0033408 C66.1978172,15.2977935 70.7023282,18.5659955 75.2174881,21.7948217 C80.6804056,25.7061639 86.1113763,29.6568821 91.5849428,33.5288484 C100.317092,39.7108692 108.985347,46.0372684 117.696198,52.2717905 C120.709854,54.4374666 123.734159,56.576892 126.758465,58.7294428 C126.875603,58.8081946 127.067669,58.8606959 127.067669,59.0050743 C127.077934,59.2150792 126.864954,59.2413299 126.737167,59.333207 C123.350797,61.6695121 119.964427,64.0058172 116.588706,66.3421223 C116.1308,66.6571298 115.672895,66.9852625 115.225639,67.3265205 C114.842276,67.6284027 114.437616,67.6809039 114.001008,67.5627761 C112.5421,67.1690168 111.072543,66.7752575 109.613636,66.3946236 C108.069536,66.0008643 106.514788,65.6202303 104.960039,65.2395963 C104.427591,65.1083432 103.905792,65.2002204 103.426589,65.5152278 C103.128418,65.7121075 102.851545,65.9614883 102.585321,66.2239945 C102.276501,66.5258767 102.148713,66.9065106 102.201958,67.3790218 C102.244554,67.7334051 102.297799,68.0877885 102.340395,68.4290465 C102.553374,70.0828355 102.393639,71.6841233 101.957032,73.2722858 C101.658861,74.3748118 101.232903,75.3985859 100.732401,76.3829841 C99.5716644,78.6930386 98.0914587,80.6487097 96.3982737,82.3681253 C95.0991003,83.6675309 93.7253842,84.8225582 92.2771254,85.8725829 C92.1706358,85.9513348 92.0641461,86.0169614 91.9789544,86.1088385 C91.3080698,86.765104 90.5626425,87.2638658 89.8065662,87.7495022 C88.1133812,88.8257776 86.4201962,89.8889277 84.6631175,90.8076993 C81.6814081,92.3564859 78.603858,93.5771397 75.4730632,94.5746632 C73.4923562,95.204678 71.5010003,95.755941 69.4883465,96.1890763 C68.1678752,96.4778331 66.8367549,96.7009633 65.4949857,96.8847177 C63.6633642,97.1340985 61.8317427,97.278477 59.9894723,97.3966047 C58.5944582,97.4884819 57.1994442,97.5409831 55.8044302,97.5541085 C54.6010975,97.5672338 53.3871158,97.4884819 52.1837831,97.4228554 C51.353164,97.3834794 50.511896,97.3047276 49.681277,97.2259757 C48.7015724,97.1340985 47.711219,97.0159708 46.7315145,96.8847177 C45.8689485,96.7665899 45.0063826,96.6353368 44.1438167,96.4909584 C42.7062068,96.2678281 41.2898948,95.9528207 39.8629339,95.6115626 C37.2219913,94.9684225 34.6236445,94.1677786 32.0359468,93.2490069 C28.6495768,92.0414784 25.3696965,90.4664413 22.1856568,88.6157726 C20.5137698,87.6444997 18.8312337,86.6732268 17.2338894,85.5050743 C14.4012655,83.4444007 11.6857802,81.1737221 9.16197615,78.5486602 C8.38460192,77.734891 7.63917457,76.8686206 6.93634307,75.9498489 C5.82885101,74.4666889 4.71070999,72.983529 3.76295236,71.3428653 C2.4318321,69.0196855 1.34563796,66.5258767 0.642806465,63.8089376 C0.152954208,61.918893 -0.0600250338,59.9632219 0.0145177009,57.9681748 C0.11035836,55.5399926 0.621508541,53.2561887 1.46277655,51.064262 C2.4318321,48.5310773 3.73100548,46.2866493 5.36029668,44.3309782 C7.23451401,42.0865503 9.24716785,40.0521273 11.451503,38.3064611 C12.580293,37.4008148 13.7836257,36.6526721 14.9763095,35.8914042 C17.4255707,34.3426176 19.9280768,32.9250842 22.5264236,31.7569316 C24.9224401,30.6806563 27.3823503,29.8537618 29.8742074,29.1712457 C31.6206372,28.6987345 33.3883649,28.3837271 35.1667416,28.1474715 C36.0506055,28.0293437 36.9238204,27.9112159 37.8076842,27.7668375 C38.4679199,27.6618351 39.1281555,27.6487098 39.7990401,27.6487098 C41.3005438,27.6487098 42.8020474,27.6749604 44.2929021,27.6880857 C45.0809253,27.701211 45.8582996,27.7537122 46.6356738,27.8849653 C47.1042281,27.9637172 47.5514845,27.87184 47.988092,27.6487098 C48.3927525,27.4255795 48.7654662,27.1236974 49.116882,26.7824393 C49.3724571,26.5461837 49.4576488,26.218051 49.4150529,25.837417 C49.383106,25.5617855 49.2872654,25.3124047 49.1701268,25.0761491 C48.7761152,24.2623799 48.3821036,23.4486107 47.9987409,22.6348415 C47.5408356,21.6504433 47.0829302,20.6660451 46.6250248,19.6816469 C46.5504821,19.5110178 46.4972373,19.3403888 46.4226946,19.1828851 Z" id="path-5"></path>
        <filter x="-3.0%" y="-4.2%" width="107.2%" height="111.0%" filterUnits="objectBoundingBox" id="filter-6">
            <feMorphology radius="2.625" operator="dilate" in="SourceAlpha" result="shadowSpreadOuter1"></feMorphology>
            <feOffset dx="0" dy="2" in="shadowSpreadOuter1" result="shadowOffsetOuter1"></feOffset>
            <feComposite in="shadowOffsetOuter1" in2="SourceAlpha" operator="out" result="shadowOffsetOuter1"></feComposite>
            <feColorMatrix values="0 0 0 0 0.980392157   0 0 0 0 0.980392157   0 0 0 0 0.980392157  0 0 0 1 0" type="matrix" in="shadowOffsetOuter1"></feColorMatrix>
        </filter>
        <path d="M53.2908543,8.64854466 C54.9414304,7.65102113 56.5707087,6.60099637 58.2106359,5.59034753 C58.6046444,5.34096665 59.0093018,5.1309617 59.4033103,4.89470612 C59.69083,4.7240771 59.9570519,4.75032772 60.2339227,4.90783143 C60.7450689,5.19658824 61.2349173,5.53784629 61.7141168,5.89222965 C66.1972944,9.18668235 70.7017698,12.4548844 75.2168941,15.6837106 C80.6797685,19.5950528 86.1106963,23.545771 91.5842196,27.4177373 C100.3163,33.5997581 108.984486,39.9261573 117.695268,46.1606794 C120.708901,48.3263554 123.733182,50.4657809 126.757464,52.6183317 C126.874601,52.6970835 127.066666,52.7495848 127.066666,52.8939632 C127.07693,53.1039681 126.863952,53.1302187 126.736166,53.2220959 C123.349823,55.558401 119.96348,57.8947061 116.587785,60.2310112 C116.129883,60.5460186 115.671982,60.8741514 115.224729,61.2154094 C114.841369,61.5172916 111.071666,60.6641464 109.61277,60.2835125 C108.068683,59.8897532 106.513947,59.5091192 104.95921,59.1284852 C104.426766,58.9972321 103.904971,59.0891093 103.425772,59.4041167 C103.127603,59.6009964 102.850733,59.8503772 102.584511,60.1128834 C102.275693,60.4147655 102.147907,60.7953995 102.201151,61.2679107 C102.243746,61.622294 102.296991,61.9766774 102.339586,62.3179354 C102.552564,63.9717244 102.392831,65.5730122 101.956227,67.1611747 C101.658058,68.2637007 101.232103,69.2874748 100.731606,70.271873 C99.5708781,72.5819275 98.0906841,74.5375986 96.3975125,76.2570142 C95.0983493,77.5564198 93.7246441,78.7114471 92.2763967,79.7614718 C92.1699079,79.8402237 92.0634191,79.9058502 91.9782281,79.9977274 C91.3073488,80.6539929 90.5619273,81.1527546 89.805857,81.6383911 C88.1126854,82.7146665 86.4195138,83.7778166 84.6624489,84.6965882 C81.6807631,86.2453748 78.6032373,87.4660285 75.4724672,88.4635521 C73.4917759,89.0935669 71.5004357,89.6448299 69.4877977,90.0779651 C68.1673369,90.366722 66.8362271,90.5898522 65.4944685,90.7736066 C63.6628615,91.0229874 61.8312544,91.1673658 59.9889985,91.2854936 C58.5939955,91.3773708 57.1989925,91.429872 55.8039895,91.4429973 C54.6006663,91.4561227 53.3866942,91.3773708 52.183371,91.3117442 C51.3527585,91.2723683 50.5114971,91.1936165 49.6808846,91.1148646 C48.7011879,91.0229874 47.7108422,90.9048596 46.7311454,90.7736066 C45.8685863,90.6554788 45.0060272,90.5242257 44.1434681,90.3798473 C42.7058695,90.156717 41.2895688,89.8417096 39.8626191,89.5004515 C37.2216974,88.8573114 34.6233711,88.0566675 32.0356938,87.1378958 C28.6493506,85.9303673 25.3694961,84.3553302 22.1854816,82.5046615 C20.5136078,81.5333886 18.831085,80.5621157 17.2337533,79.3939632 C14.4011518,77.3332896 11.6856879,75.062611 9.1619038,72.4375491 C8.3845357,71.6237799 7.63911424,70.7575095 6.93628829,69.8387378 C5.82880498,68.3555778 4.71067279,66.8724179 3.76292265,65.2317542 C2.43181289,62.9085744 1.34562734,60.4147655 0.642801389,57.6978265 C0.152953,55.8077819 -0.0600245598,53.8521108 0.0145175863,51.8570637 C0.110357488,49.4288814 0.621503633,47.1450776 1.462765,44.9531509 C2.43181289,42.4199661 3.73097601,40.1755382 5.36025435,38.2198671 C7.23445688,35.9754392 9.24709482,33.9410162 11.4514126,32.19535 C12.5801936,31.2897036 13.7835169,30.541561 14.9761912,29.780293 C17.4254331,28.2315065 19.9279195,26.8139731 22.5262457,25.6458205 C24.9222433,24.5695451 27.3821341,23.7426506 29.8739715,23.0601345 C31.6203875,22.5876234 33.3881013,22.272616 35.1664639,22.0363604 C36.0503208,21.9182326 36.9235288,21.8001048 37.8073856,21.6557264 C38.4676161,21.550724 39.1278465,21.5375986 39.7987258,21.5375986 C41.3002176,21.5375986 42.8017094,21.5638493 44.2925524,21.5769746 C45.0805693,21.5900999 45.8579374,21.6426011 46.6353055,21.7738542 C47.1038562,21.8526061 47.551109,21.7607289 47.987713,21.5375986 C48.3923704,21.3144684 48.7650811,21.0125863 49.1164941,20.6713282 C49.3720672,20.4350726 49.4572582,20.1069399 49.4146627,19.7263059 C49.382716,19.4506744 49.2868761,19.2012935 49.1697385,18.965038 C48.77573,18.1512688 48.3817215,17.3374996 47.9983619,16.5237304 C47.7922702,16.0806739 48.727835,14.8934782 49.6770159,13.3879808 C50.8367581,11.548512 52.164222,9.33260099 53.2908543,8.64854466 Z" id="path-7"></path>
        <filter x="-3.0%" y="-4.2%" width="107.2%" height="111.0%" filterUnits="objectBoundingBox" id="filter-8">
            <feMorphology radius="2.625" operator="dilate" in="SourceAlpha" result="shadowSpreadOuter1"></feMorphology>
            <feOffset dx="0" dy="2" in="shadowSpreadOuter1" result="shadowOffsetOuter1"></feOffset>
            <feComposite in="shadowOffsetOuter1" in2="SourceAlpha" operator="out" result="shadowOffsetOuter1"></feComposite>
            <feColorMatrix values="0 0 0 0 0.980392157   0 0 0 0 0.980392157   0 0 0 0 0.980392157  0 0 0 1 0" type="matrix" in="shadowOffsetOuter1"></feColorMatrix>
        </filter>
        <path d="M46.7770663,8.95110721 C46.8843688,8.74917937 47.0560528,8.68187009 47.2062763,8.5876371 C49.3523267,7.13375666 51.5198376,5.76064735 53.6980787,4.41446176 C55.3612678,3.3913607 57.0029963,2.31441223 58.6554551,1.27784932 C59.0524744,1.02207405 59.460224,0.80668436 59.8572433,0.564370953 C60.1469601,0.389366825 60.4152164,0.416290537 60.694203,0.577832808 C61.2092551,0.873993639 61.7028467,1.22400189 62.185708,1.58747201 C66.703144,4.96639785 71.2420406,8.31839998 75.7916674,11.6300165 C81.2962866,15.6416496 86.7687151,19.6936683 92.2840645,23.6649158 C101.082871,30.0054499 109.817296,36.4940645 118.594642,42.8884461 C121.631303,45.1096523 124.678695,47.3039348 127.726087,49.5116792 C127.844119,49.5924503 128.037651,49.6462978 128.037651,49.7943782 C128.047994,50.0097679 127.833389,50.0366916 127.704626,50.1309246 C124.292406,52.5271349 120.880186,54.9233453 117.478696,57.3195557 C117.017295,57.6426402 116.555894,57.9791866 116.105224,58.3291949 C115.718935,58.6388175 115.311185,58.692665 114.871245,58.5715083 C113.4012,58.1676526 111.920426,57.7637969 110.450381,57.3734031 C108.894494,56.9695474 107.327878,56.5791536 105.761261,56.1887598 C105.224748,56.0541412 104.698966,56.1483742 104.216105,56.4714587 C103.915658,56.6733866 103.636671,56.9291618 103.368415,57.198399 C103.057237,57.5080216 102.928474,57.8984155 102.982126,58.3830423 C103.025047,58.7465124 103.078698,59.1099825 103.121619,59.4599908 C103.336224,61.1561846 103.17527,62.798531 102.73533,64.4274156 C102.434883,65.5582115 102.005673,66.6082363 101.501351,67.6178755 C100.331753,69.9871621 98.8402485,71.9929787 97.1341384,73.7564818 C95.8250477,75.0892055 94.4408452,76.2738488 92.9815309,77.3507973 C92.8742284,77.4315685 92.7669259,77.4988777 92.6810839,77.5931107 C92.005078,78.2662035 91.2539604,78.7777541 90.4921125,79.2758427 C88.7860024,80.3797149 87.0798924,81.4701252 85.3094008,82.4124552 C82.3049303,84.0009542 79.2038875,85.2529068 76.0491934,86.2760078 C74.0533666,86.9221769 72.0468095,87.4875749 70.0187919,87.9318161 C68.6882406,88.2279769 67.3469591,88.4568285 65.9949474,88.6452945 C64.1493441,88.9010697 62.3037408,89.0491501 60.4474072,89.1703069 C59.0417442,89.2645398 57.6360812,89.3183873 56.2304182,89.3318491 C55.0178997,89.345311 53.794651,89.2645398 52.5821325,89.1972306 C51.7451729,89.156845 50.897483,89.0760739 50.0605233,88.9953027 C49.0733402,88.9010697 48.0754267,88.779913 47.0882436,88.6452945 C46.2190932,88.5241378 45.3499428,88.3895192 44.4807924,88.2414388 C43.0322084,88.0125872 41.6050849,87.6895027 40.1672311,87.3394944 C37.5061286,86.6798635 34.8879472,85.8586903 32.280496,84.9163604 C28.8682759,83.6778696 25.5633583,82.0624469 22.355013,80.1643252 C20.6703634,79.1681479 18.9749836,78.1719705 17.3654458,76.9738654 C14.5111988,74.860354 11.7749846,72.5314529 9.2319149,69.8390817 C8.44860651,69.0044466 7.69748888,68.1159641 6.98929225,67.1736342 C5.87334606,65.6524445 4.74666961,64.1312548 3.79167719,62.4485228 C2.4503957,60.0657743 1.35591001,57.5080216 0.647713385,54.7214175 C0.154121798,52.7829102 -0.0604832402,50.7770937 0.0146285231,48.7308916 C0.11120079,46.2404482 0.626252881,43.8980853 1.47394278,41.6499553 C2.4503957,39.0518171 3.75948643,36.7498398 5.40121497,34.7440232 C7.28973931,32.4420459 9.31775691,30.3554582 11.5389191,28.5650313 C12.6763258,27.6361633 13.8888442,26.8688375 15.0906324,26.0880498 C17.5585904,24.4995508 20.0801996,23.0456704 22.698381,21.8475652 C25.1126877,20.743693 27.5913759,19.8955961 30.1022548,19.1955796 C31.8620161,18.7109528 33.643238,18.3878682 35.43519,18.1455548 C36.3258009,18.0243981 37.2056816,17.9032414 38.0962925,17.755161 C38.7615681,17.6474662 39.4268437,17.6340043 40.1028496,17.6340043 C41.6158151,17.6340043 43.1287806,17.660928 44.6310159,17.6743899 C45.4250545,17.6878517 46.2083629,17.7416992 46.9916713,17.8763177 C47.4638024,17.9570888 47.914473,17.8628559 48.3544133,17.6340043 C48.7621629,17.4051528 49.1377217,17.0955301 49.49182,16.7455218 C49.749346,16.5032084 49.8351881,16.166662 49.7922671,15.7762682 C49.7600763,15.4935692 49.663504,15.2377939 49.5454713,14.9954805 C49.1484519,14.1608455 48.7514326,13.3262104 48.3651435,12.4915753 C47.9037427,11.4819361 47.4423419,10.4722969 46.9809411,9.46265774 C46.9058293,9.28765361 46.852178,9.11264948 46.7770663,8.95110721 Z" id="path-9"></path>
    </defs>
    <g id="Design-Assets" stroke="none" stroke-width="1" fill="none" fill-rule="evenodd">
        <g id="1" transform="translate(-47.000000, -45.000000)">
            <g id="Group-2" transform="translate(50.000000, 47.000000)">
                <g id="Group">
                    <g id="Path" stroke-linejoin="round" fill-rule="nonzero">
                        <use fill="black" fill-opacity="1" filter="url(#filter-2)" xlink:href="#path-1"></use>
                        <use stroke="#121212" stroke-width="5" fill="#FAFAFA" xlink:href="#path-1"></use>
                    </g>
                    <g id="Path" stroke-linejoin="round" fill-rule="nonzero">
                        <use fill="black" fill-opacity="1" filter="url(#filter-4)" xlink:href="#path-3"></use>
                        <use stroke="#121212" stroke-width="5" fill="#FAFAFA" xlink:href="#path-3"></use>
                    </g>
                    <g id="Path" stroke-linejoin="round" fill-rule="nonzero">
                        <use fill="black" fill-opacity="1" filter="url(#filter-6)" xlink:href="#path-5"></use>
                        <use stroke="#121212" stroke-width="5" fill="#FAFAFA" xlink:href="#path-5"></use>
                    </g>
                    <g id="Path" stroke-linejoin="round" fill-rule="nonzero">
                        <use fill="black" fill-opacity="1" filter="url(#filter-8)" xlink:href="#path-7"></use>
                        <use stroke="#121212" stroke-width="5" fill="#FAFAFA" xlink:href="#path-7"></use>
                    </g>
                    <path d="M55.8025013,68.6666667 C54.3117933,68.6129249 52.6836441,68.5054414 51.0554949,68.2367325 C48.7507122,67.8471047 46.509364,67.188768 44.2997329,66.2751579 C43.7499683,66.0467553 43.2213484,65.7914819 42.7033009,65.4555959 C42.4072738,65.2674997 42.0795295,65.1331452 41.77293,64.9719199 C39.8276088,63.9239554 38.0620185,62.5266694 36.4021521,60.8606745 C35.6620843,60.1082897 34.9748784,59.2887277 34.3722518,58.3482467 C34.086797,57.8914416 33.7801975,57.4749429 33.5053152,57.0047024 C33.3044396,56.6553809 33.1247089,56.2926239 32.9766953,55.9029961 C32.4692202,54.5594518 32.1309035,53.1487304 32.0251795,51.6573962 C31.9617452,50.7840924 32.0991863,49.951095 32.2683447,49.1046621 C32.596089,47.4386672 33.26215,46.0145103 34.0973694,44.6978369 C34.9008716,43.4349053 35.8629598,42.3869407 36.9096271,41.4733306 C38.8760931,39.7267231 41.0328621,38.4637915 43.3059276,37.4964396 C44.754346,36.8918447 46.2344817,36.4619105 47.7251897,36.0857181 C48.4018231,35.9110574 49.0996014,35.8438802 49.7762348,35.7095257 C50.6643162,35.534865 51.5523975,35.4676878 52.4510513,35.3602042 C52.6519269,35.3333333 52.8528024,35.3333333 53.0642504,35.3333333 C54.3646553,35.3333333 55.6650601,35.3333333 56.9760374,35.3467688 C57.3460713,35.3467688 57.7161052,35.4005105 58.0861391,35.4408169 C58.8790689,35.5483004 59.6614264,35.6692194 60.4543562,35.7901384 C61.7441886,35.99167 63.0128763,36.354427 64.281564,36.7306194 C66.2903195,37.3352143 68.2356407,38.1950826 70.0963826,39.3236598 C72.1262829,40.5462851 73.9870248,42.091361 75.615174,44.0663711 C76.9472961,45.6920597 77.8882395,47.6267634 78.3428526,49.9107887 C78.6705969,51.590219 78.6494521,53.2696493 78.2265562,54.9356442 C77.9728187,55.9433024 77.6767915,56.9106543 77.2221784,57.810829 C77.1058821,58.0392315 76.9790133,58.2810695 76.8415721,58.4960365 C76.6724138,58.7647454 76.4821106,58.9931479 76.386959,59.329034 C76.3446695,59.4768239 76.2389455,59.6111783 76.1332215,59.7186618 C75.8160496,60.0142416 75.5517397,60.3635631 75.2662849,60.7128846 C74.8751062,61.1965605 74.4627827,61.6264947 74.0293144,62.0429934 C72.2637241,63.7492946 70.3184029,64.9987908 68.2356407,65.9392718 C67.3898489,66.3154642 66.5652019,66.7453984 65.6982653,67.0409781 C64.1335505,67.5783958 62.5476908,67.9814591 60.930114,68.2232971 C59.2385305,68.4785705 57.3777885,68.6666667 55.8025013,68.6666667 Z" id="Path" stroke="#0A0B09" stroke-width="5" fill="#FFFFFF" fill-rule="nonzero"></path>
                    <path d="M76.6285944,59.7777778 C75.0061589,57.9084406 72.3828703,55.8229216 70.3706289,54.6657129 C68.5164168,53.5975203 66.5779225,52.7836592 64.5762163,52.2114131 C63.3119809,51.8426323 62.0477454,51.4992847 60.7624394,51.3212526 C59.9722922,51.2068034 59.1926803,51.0923542 58.4025332,50.9906215 C58.0337978,50.9397552 57.6650625,50.9016055 57.2963271,50.9016055 C56.0004858,50.8888889 54.7046444,50.8888889 53.3982678,50.8888889 C53.1980972,50.8888889 52.9979266,50.9016055 52.7872207,50.914322 C51.9022558,51.0160547 51.0067557,51.0796376 50.1217909,51.2449531 C49.4369967,51.3721189 48.7522025,51.4357018 48.0779436,51.6010173 C46.5924669,51.9570815 45.1175255,52.3640121 43.67419,52.9362581 C41.4091015,53.8391353 39.2704365,55.0472103 37.3003363,56.7003656 C36.257342,57.5778096 35.7200419,57.9593069 34.9193595,59.1546654" id="Path" stroke="#0A0B09" stroke-width="5"></path>
                    <polygon id="Line-2" points="121.680972 46.4444444 116.397865 50.2804233 125.462019 57.5555556 127.067669 56.4973545 127.067669 54.9100529"></polygon>
                    <g id="Permahills" transform="translate(0.092148, 0.000000)">
                        <mask id="mask-10" fill="white">
                            <use xlink:href="#path-9"></use>
                        </mask>
                        <use id="Mask" stroke="#FAFAFA" stroke-width="3" fill="#FE0230" fill-rule="nonzero" stroke-linejoin="bevel" xlink:href="#path-9"></use>
                    </g>
                    <path d="M53.2357327,66.2003239 C51.7352453,66.1472673 50.0964152,66.0411542 48.457585,65.7758713 C46.1376825,65.3912111 43.8816306,64.741268 41.657504,63.8393062 C41.1041327,63.6138157 40.572045,63.361797 40.0505991,63.0301934 C39.7526299,62.8444954 39.4227356,62.7118539 39.1141247,62.5526842 C37.1560419,61.5180809 35.3788689,60.1386099 33.7081135,58.493856 C32.9631907,57.7510639 32.2714766,56.9419511 31.6648966,56.013461 C31.3775693,55.5624801 31.0689584,55.1512916 30.7922728,54.6870465 C30.5900795,54.3421788 30.4091696,53.9840469 30.2601851,53.5993867 C29.7493809,52.2729723 29.4088447,50.8802371 29.3024272,49.4079171 C29.2385766,48.5457477 29.3769195,47.7233707 29.5471875,46.8877296 C29.8770819,45.2429757 30.5475124,43.8369764 31.388211,42.5370903 C32.1969844,41.2902607 33.165384,40.2556574 34.2189177,39.3536956 C36.198284,37.6293568 38.3692019,36.3825272 40.6571791,35.4275088 C42.1150994,34.8306223 43.604945,34.4061697 45.1054324,34.0347737 C45.7865046,33.8623398 46.4888604,33.7960191 47.1699327,33.6633776 C48.0638401,33.4909438 48.9577474,33.424623 49.8622966,33.3185099 C50.0644899,33.2919816 50.2666832,33.2919816 50.4795183,33.2919816 C51.7884541,33.2919816 53.0973899,33.2919816 54.4169674,33.3052457 C54.7894288,33.3052457 55.1618902,33.3583023 55.5343516,33.3980947 C56.3324832,33.5042079 57.119973,33.6235852 57.9181046,33.7429625 C59.2163986,33.9419247 60.4934091,34.3000566 61.7704197,34.6714526 C63.792353,35.2683391 65.7504358,36.1172444 67.6233845,37.2314325 C69.6666014,38.4384696 71.5395501,39.9638462 73.1783803,41.9136755 C74.5192414,43.5186369 75.4663575,45.4286737 75.9239529,47.6835783 C76.2538473,49.3415963 76.2325638,50.9996144 75.8068936,52.6443683 C75.5514915,53.6391791 75.2535224,54.5941975 74.795927,55.4828952 C74.6788677,55.7083857 74.5511666,55.9471403 74.4128238,56.1593666 C74.2425557,56.4246495 74.0510042,56.6501399 73.9552284,56.9817435 C73.9126614,57.1276491 73.8062438,57.2602906 73.6998263,57.3664037 C73.3805736,57.6582149 73.1145298,58.0030826 72.8272024,58.3479504 C72.4334575,58.8254596 72.0184291,59.2499122 71.5821172,59.6611007 C69.8049442,61.345647 67.8468614,62.5792125 65.7504358,63.5077026 C64.8990954,63.8790986 64.0690386,64.3035513 63.1964147,64.5953624 C61.6214351,65.1259282 60.025172,65.5238525 58.3969835,65.7626071 C56.6943028,66.0146259 54.8213541,66.2003239 53.2357327,66.2003239 Z" id="Path" stroke="#FAFAFA" stroke-width="4" fill="#FAFAFA" fill-rule="nonzero"></path>
                    <path d="M73.9445867,56.9817436 C72.3057565,55.0319144 69.6559597,52.8565947 67.6233846,51.6495575 C65.7504358,50.5353694 63.792353,49.6864641 61.7704196,49.0895776 C60.4934091,48.7049174 59.2163986,48.3467855 57.9181045,48.1610875 C57.1199729,48.0417102 56.3324831,47.9223329 55.5343515,47.8162197 C55.1618901,47.7631632 54.7894287,47.7233707 54.4169673,47.7233707 C53.1080315,47.7101066 51.7990957,47.7101066 50.4795182,47.7101066 C50.2773248,47.7101066 50.0751315,47.7233707 49.8622964,47.7366349 C48.9683891,47.842748 48.0638399,47.9090687 47.1699326,48.0815026 C46.4782185,48.2141441 45.7865045,48.2804648 45.1054322,48.4528987 C43.6049448,48.8242947 42.1150992,49.2487473 40.6571788,49.8456338 C38.3692016,50.7873881 36.2089255,52.0474818 34.2189174,53.7718206 C33.1653837,54.6870466 32.6226543,55.0849709 31.8138809,56.3318005" id="Path" stroke="#FAFAFA" stroke-width="3"></path>
                </g>
                <path d="M53.2526087,65.4083423 C51.7521213,65.3552857 50.1132912,65.2491726 48.474461,64.9838897 C46.1545586,64.5992295 43.8985066,63.9492864 41.67438,63.0473246 C41.1210088,62.8218342 40.588921,62.5698154 40.0674751,62.2382118 C39.7695059,62.0525138 39.4396116,61.9198723 39.1310007,61.7607026 C37.1729179,60.7260993 35.3957449,59.3466283 33.7249895,57.7018744 C32.9800667,56.9590823 32.9025071,56.8862477 32.2959271,55.9577576 C32.0085998,55.5067767 33.18226,54.4636758 34.2357937,53.561714 C36.21516,51.8373752 38.3860779,50.5905457 40.6740551,49.6355273 C42.1319754,49.0386408 43.621821,48.6141881 45.1223084,48.2427921 C45.8033807,48.0703582 46.5057364,48.0040375 47.1868087,47.871396 C48.0807161,47.6989622 48.9746235,47.6326414 49.8791726,47.5265283 C50.0813659,47.5 50.2835592,47.5 50.4963943,47.5 C51.8053301,47.5 53.1142659,47.5 54.4338434,47.5132641 C54.8063048,47.5132641 55.1787662,47.5663207 55.5512276,47.6061132 C56.3493592,47.7122263 57.136849,47.8316036 57.9349806,47.9509809 C59.2332746,48.1499431 60.5102852,48.508075 61.7872957,48.879471 C63.809229,49.4763575 65.7673118,50.3252628 67.6402606,51.4394509 C69.6834774,52.646488 71.5564262,54.1718646 73.1952563,56.1216939 C73.9759261,57.056127 73.6344562,56.5667787 73.5899966,56.6111111 C73.270744,56.9029223 73.1314058,57.2111011 72.8440784,57.5559688 C72.4503335,58.033478 72.0353051,58.4579306 71.5989932,58.8691191 C69.8218202,60.5536655 67.8637374,61.7872309 65.7673118,62.715721 C64.9159715,63.087117 64.0859146,63.5115697 63.2132908,63.8033808 C61.6383111,64.3339466 60.042048,64.7318709 58.4138596,64.9706255 C56.7111789,65.2226443 54.8382301,65.4083423 53.2526087,65.4083423 Z" id="Path" fill="#121212" fill-rule="nonzero"></path>
            </g>
        </g>
    </g>
</svg>